<svg width="640" height="480" xmlns="http://www.w3.org/2000/svg" xmlns:svg="http://www.w3.org/2000/svg">
 <!-- Created with SVG-edit - http://svg-edit.googlecode.com/ -->
 <g>
  <title>Layer 1</title>
  <rect fill="#009688" stroke="#000000" stroke-width="0" width="640" height="480" id="svg_1"/>
  <path id="svg_3" d="m395.722748,136.375626l-151.465485,0c-7.585342,0 -13.762711,6.166443 -13.762711,13.77211l0,151.466919c0,7.594727 6.177368,13.760956 13.762711,13.760956l151.465485,0c7.605499,0 13.782684,-6.166229 13.782684,-13.760956l0,-151.466919c0,-7.605667 -6.177185,-13.77211 -13.782684,-13.77211zm-110.368805,162.863663l-27.545837,0l0,-96.385986l27.545837,0l0,96.385986zm-13.762695,-106.712372c-9.517883,0 -17.207092,-7.700836 -17.207092,-17.207764s7.689209,-17.218628 17.207092,-17.218628s17.208282,7.710953 17.208282,17.218628s-7.690521,17.207764 -17.208282,17.207764zm110.159729,106.712372l-27.545776,0l0,-58.513763c0,-2.762955 -2.772278,-7.269928 -4.726807,-8.351578c-2.584045,-1.46138 -8.677979,-1.576096 -11.472412,-0.241837l-11.345276,5.46312l0,61.644058l-27.523712,0l0,-96.385986l27.523712,0l0,4.222824c10.903992,-4.968521 26.032654,-4.485107 36.28537,1.271606c10.904022,6.103561 18.804901,19.718552 18.804901,32.377792l0,58.513763z" stroke-width="5" stroke="#ffffff" fill="#ffffff"/>
 </g>
</svg>