<svg width="640" height="480" xmlns="http://www.w3.org/2000/svg">
 <!-- Created with SVG-edit - http://svg-edit.googlecode.com/ -->
 <g display="inline">
  <title>Layer 2</title>
  <rect x="1" id="svg_15" height="480" width="640" stroke-linecap="null" stroke-linejoin="null" stroke-width="0" stroke="#e91e63" fill="#e91e63"/>
  <path id="svg_17" d="m284.056122,281.663696c-6.011566,-1.085754 -8.081818,-8.676025 -4.499695,-13.224915c4.756012,-7.035248 14.926025,-11.77655 22.895233,-7.338867c0.158356,-24.771179 0.066925,-49.542343 0.091431,-74.315155c19.869904,-4.008255 39.783752,-7.809158 59.661865,-11.78476c-0.04425,27.762268 -0.0849,55.526154 -0.12915,83.288391c-3.115173,8.396912 -13.175751,14.219238 -21.938232,11.615082c-5.216644,-1.560974 -6.467285,-8.29422 -3.562653,-12.418365c3.977295,-6.155258 11.381439,-10.380661 18.823212,-9.226349c2.125763,-0.215515 5.252502,3.222931 4.354523,-0.666138c0,-13.91864 0,-27.83725 0,-41.755997c-18.238892,3.671921 -36.515259,7.169144 -54.765472,10.80188c-0.0849,17.386505 0.209015,34.77951 -0.21051,52.15947c-1.319244,6.718658 -7.912109,11.371765 -14.310608,12.730164c-2.117615,0.253082 -4.290741,0.471893 -6.409943,0.135559zm47.579834,-75.699722c9.373413,-1.84494 18.749817,-3.667023 28.116699,-5.531555c1.193329,-4.749496 -4.143768,-1.663712 -6.752808,-1.549423c-16.002136,3.159256 -32.012299,6.271164 -48.012665,9.443481c-1.190155,4.747864 4.143768,1.663712 6.752808,1.547791c6.630463,-1.306152 13.263977,-2.610672 19.895966,-3.910294zm0,-8.31366c9.373413,-1.843307 18.749817,-3.66539 28.116699,-5.531555c1.193329,-4.747864 -4.143768,-1.663712 -6.752808,-1.547791c-16.002136,3.159256 -32.012299,6.271164 -48.012665,9.441849c-1.190155,4.749496 4.143768,1.663712 6.752808,1.549423c6.630463,-1.307785 13.263977,-2.610672 19.895966,-3.911926zm0,-8.310394c9.373413,-1.84494 18.749817,-3.667023 28.116699,-5.531555c1.193329,-4.751129 -4.143768,-1.665344 -6.752808,-1.549423c-16.002136,3.157623 -32.012299,6.269531 -48.012665,9.441849c-1.190155,4.749496 4.143768,1.665344 6.752808,1.549423c6.630463,-1.307785 13.263977,-2.609039 19.895966,-3.910294z" stroke-linecap="null" stroke-linejoin="null" stroke-width="0" stroke="#e91e63" fill="#ffffff"/>
 </g>
</svg>